<svg width="100" height="100" viewBox="0 0 100 100" fill="none" xmlns="http://www.w3.org/2000/svg">
<rect x="5" y="5" width="90" height="90" rx="7" fill="white" fill-opacity="0.5"/>
<path d="M47.2433 7.92513C47.0623 7.94159 46.4862 7.99919 45.9678 8.04033C34.0111 9.11833 22.8114 15.5699 15.718 25.4858C11.7681 30.9992 9.24179 37.2533 8.28723 43.8776C7.94984 46.19 7.90869 46.873 7.90869 50.0082C7.90869 53.1435 7.94984 53.8265 8.28723 56.1388C10.5749 71.9468 21.8239 85.2284 37.0805 90.1493C39.8125 91.0298 42.6927 91.6305 45.9678 91.9926C47.2433 92.1325 52.7567 92.1325 54.0322 91.9926C59.6856 91.3672 64.4748 89.9683 69.1983 87.5572C69.9224 87.1869 70.0623 87.0881 69.9636 87.0058C69.8978 86.9565 66.8119 82.8173 63.1088 77.814L56.3775 68.721L47.9428 56.2376C43.3016 49.3746 39.4834 43.7624 39.4505 43.7624C39.4175 43.7542 39.3846 49.3005 39.3682 56.073C39.3435 67.931 39.3352 68.4083 39.1871 68.6881C38.9732 69.0913 38.8086 69.2559 38.463 69.4369C38.1996 69.5686 37.9692 69.5933 36.7267 69.5933H35.303L34.9245 69.3546C34.6776 69.1983 34.4966 68.9925 34.3732 68.7539L34.2003 68.3836L34.2168 51.8845L34.2415 35.3771L34.4966 35.0561C34.6283 34.8833 34.908 34.6612 35.1055 34.5542C35.4429 34.3896 35.5746 34.3731 36.9982 34.3731C38.6769 34.3731 38.9567 34.439 39.3928 34.9163C39.5163 35.0479 44.0834 41.9274 49.5474 50.214C55.0115 58.5006 62.4834 69.8154 66.1536 75.37L72.819 85.467L73.1564 85.2448C76.1436 83.3028 79.3035 80.5378 81.8051 77.6577C87.1293 71.5435 90.5608 64.0881 91.7128 56.1388C92.0502 53.8265 92.0914 53.1435 92.0914 50.0082C92.0914 46.873 92.0502 46.19 91.7128 43.8776C89.4252 28.0697 78.1761 14.7881 62.9196 9.86717C60.2287 8.9949 57.365 8.39418 54.1557 8.03211C53.3657 7.94982 47.9263 7.8593 47.2433 7.92513ZM64.4748 33.3857C64.8698 33.5832 65.1908 33.9617 65.306 34.3567C65.3718 34.5706 65.3883 39.146 65.3718 49.4569L65.3471 64.2526L62.7385 60.2533L60.1217 56.2541V45.4987C60.1217 38.5452 60.1546 34.6365 60.204 34.4472C60.3357 33.9864 60.6237 33.6243 61.0187 33.4103C61.356 33.2375 61.4795 33.2211 62.7714 33.2211C63.9893 33.2211 64.2033 33.2375 64.4748 33.3857Z" fill="black"/>
</svg>
