<svg width="100" height="100" viewBox="0 0 100 100" fill="none" xmlns="http://www.w3.org/2000/svg">
<path d="M73.5888 62.8764C80.0429 62.8764 85.2749 57.6443 85.2749 51.1903C85.2749 44.7362 80.0429 39.5041 73.5888 39.5041C67.1347 39.5041 61.9026 44.7362 61.9026 51.1903C61.9026 57.6443 67.1347 62.8764 73.5888 62.8764Z" fill="#3EAAAF"/>
<path d="M73.5888 67.0964C59.955 67.0964 48.9181 78.1333 48.9181 91.6589H98.1514C98.1514 78.1333 87.2227 67.0964 73.5888 67.0964Z" fill="#3EAAAF"/>
<g opacity="0.1">
<path d="M74.6708 62.7682C74.3462 62.7682 73.9134 62.8764 73.5888 62.8764C67.0965 62.8764 61.9026 57.5743 61.9026 51.1903C61.9026 44.698 67.0965 39.5041 73.5888 39.5041C73.9134 39.5041 74.3462 39.5041 74.6708 39.5041C68.7196 40.0451 64.0667 45.0226 64.0667 51.1903C64.0667 57.2497 68.7196 62.2272 74.6708 62.7682Z" fill="black"/>
<path d="M74.6709 67.0964C61.5781 67.6374 51.0822 78.4579 51.0822 91.6589H48.9181C48.9181 78.1333 59.955 67.0964 73.5888 67.0964C73.9135 67.0964 74.3463 67.0964 74.6709 67.0964Z" fill="black"/>
</g>
<path d="M41.7224 52.5346C47.2579 46.999 47.258 38.0241 41.7224 32.4885C36.1868 26.953 27.2119 26.953 21.6763 32.4885C16.1407 38.0241 16.1407 46.999 21.6763 52.5346C27.2119 58.0702 36.1868 58.0702 41.7224 52.5346Z" fill="#394DFF"/>
<path d="M31.7135 61.7943C15.1581 61.7943 1.84888 75.2118 1.84888 91.6589H61.578C61.578 75.2118 48.1606 61.7943 31.7135 61.7943Z" fill="#394DFF"/>
<g opacity="0.1">
<path d="M19.4863 42.5338C19.4863 35.0677 25.3294 28.9 32.6873 28.359C32.3627 28.359 32.0381 28.359 31.7135 28.359C23.8145 28.359 17.5386 34.7431 17.5386 42.5338C17.5386 50.3246 23.9227 56.7087 31.7135 56.7087C32.0381 56.7087 32.3627 56.7087 32.6873 56.7087C25.3294 56.1677 19.4863 50 19.4863 42.5338Z" fill="black"/>
<path d="M1.84888 91.6589H3.90477C3.90477 75.5364 16.7812 62.3354 32.7955 61.7943C32.4709 61.7943 32.1463 61.7943 31.8217 61.7943C15.1581 61.7943 1.84888 75.2118 1.84888 91.6589Z" fill="black"/>
</g>
<path d="M68.8206 28.1949H59.8395C59.7313 28.1949 59.7313 28.1949 59.6231 28.3031L52.698 33.3887C52.4816 33.6052 52.157 33.3887 52.2652 33.0641L53.5637 28.6277C53.5637 28.4113 53.4554 28.3031 53.239 28.3031H51.8324C49.8847 28.3031 48.3698 26.7882 48.3698 24.8406V13.8036C48.3698 11.856 49.8847 10.3411 51.8324 10.3411H68.8206C70.7682 10.3411 72.2831 11.856 72.2831 13.8036V24.8406C72.2831 26.68 70.7682 28.1949 68.8206 28.1949Z" fill="#394DFF"/>
<g opacity="0.1">
<path d="M53.6719 32.4149L54.9704 27.9785C54.9704 27.7621 54.8622 27.6539 54.6458 27.6539H53.2391C51.2914 27.6539 49.7765 26.139 49.7765 24.1913V13.1544C49.7765 11.9642 50.3176 10.9903 51.1832 10.3411C49.6683 10.6657 48.4781 12.0724 48.4781 13.6954V24.7323C48.4781 26.68 49.993 28.1949 51.9406 28.1949H53.3473C53.5637 28.1949 53.6719 28.4113 53.6719 28.5195L52.3735 32.9559C52.2653 33.1723 52.5899 33.3887 52.8063 33.2805L53.6719 32.6313C53.6719 32.6313 53.6719 32.5231 53.6719 32.4149Z" fill="black"/>
<path d="M70.1191 27.6539H61.2462C61.138 27.6539 61.138 27.6539 61.0298 27.7621L60.2724 28.1949H68.8206C69.578 28.1949 70.2273 27.9785 70.7683 27.5457C70.6601 27.5457 70.3355 27.6539 70.1191 27.6539Z" fill="black"/>
</g>
<path d="M60.3807 18.0236C59.6232 18.0236 59.0822 18.5646 59.0822 19.3221C59.0822 20.0795 59.6232 20.6205 60.3807 20.6205C61.1381 20.6205 61.6791 20.0795 61.6791 19.3221C61.6791 18.5646 61.1381 18.0236 60.3807 18.0236Z" fill="white"/>
<path d="M55.5114 18.0236C54.7539 18.0236 54.2129 18.5646 54.2129 19.3221C54.2129 20.0795 54.7539 20.6205 55.5114 20.6205C56.2688 20.6205 56.8098 20.0795 56.8098 19.3221C56.8098 18.5646 56.1606 18.0236 55.5114 18.0236Z" fill="white"/>
<path d="M65.358 18.0236C64.6006 18.0236 64.0596 18.5646 64.0596 19.3221C64.0596 20.0795 64.6006 20.6205 65.358 20.6205C66.1155 20.6205 66.6565 20.0795 66.6565 19.3221C66.6565 18.5646 66.0073 18.0236 65.358 18.0236Z" fill="white"/>
</svg>
