<svg viewBox="0 0 100 100" fill="none" xmlns="http://www.w3.org/2000/svg">
<g clip-path="url(#clip0_1_9)">
<path d="M95.4408 88.4806V11.5198C95.4408 8.36235 93.3381 5.69767 90.4576 4.84566L87.1862 6.80316L50.8815 45.512L49.7433 49.0695L49.0784 52.4847L60.3996 94.7944L62.1508 95.4405H88.4806C92.3246 95.4405 95.4408 92.3246 95.4408 88.4806Z" fill="#EA6618"/>
<path d="M4.55917 11.5194V88.4802C4.55917 90.8605 5.75447 92.9604 7.57672 94.2154L9.80865 93.1468L48.2367 52.0037L49.7433 49.0695L49.7998 46.233L39.3413 6.44284L37.7569 4.55917H11.5194C7.67541 4.55917 4.55917 7.67542 4.55917 11.5194Z" fill="#D65813"/>
<path d="M49.7433 49.0699L90.4576 4.8453C89.8157 4.65515 89.1497 4.55865 88.4802 4.55881H37.7576L49.7437 49.0695L49.7433 49.0699Z" fill="#E05E11"/>
<path d="M11.5194 95.4408H62.1512L49.7433 49.0695L7.57637 94.2157C8.73561 95.0155 10.1111 95.4428 11.5194 95.4408Z" fill="#DE5C16"/>
<path d="M38.2557 39.0055H43.3056C45.3178 46.5976 47.608 53.2597 50.1629 59.271C53.057 52.5081 55.1781 45.8411 56.9737 39.0051H61.7457C59.6086 47.499 56.1125 56.0596 52.1137 64.8957H47.8927C44.0515 56.5225 40.7819 47.9136 38.2557 39.0055ZM21.5988 25.8507H32.8276V74.0027H21.5491V70.2908H28.4618V29.4636H21.5988V25.8507ZM78.4598 29.4636H71.5968V70.2908H78.5088V74.0027H67.2306V25.8507H78.4594V29.4636H78.4598Z" fill="white"/>
</g>
<defs>
<clipPath id="clip0_1_9">
<rect width="90.8817" height="90.8817" fill="white" transform="translate(4.55917 4.55917)"/>
</clipPath>
</defs>
</svg>
