<svg viewBox="0 0 100 100" fill="none" xmlns="http://www.w3.org/2000/svg">
<g clip-path="url(#clip0_1_33)">
<path fill-rule="evenodd" clip-rule="evenodd" d="M58.0254 13.4788L77.3147 24.6253C77.8706 24.0335 78.5112 23.5274 79.2155 23.1235C80.1691 22.5164 81.2358 22.1088 82.3512 21.9254C83.4667 21.742 84.6077 21.7866 85.7055 22.0564C86.8032 22.3263 87.8349 22.8158 88.7382 23.4955C89.6415 24.1751 90.3976 25.0308 90.9611 26.0108C91.5245 26.9908 91.8834 28.0748 92.0162 29.1974C92.149 30.32 92.0529 31.4579 91.7338 32.5423C91.4146 33.6268 90.879 34.6353 90.1592 35.5069C89.4394 36.3786 88.5505 37.0953 87.546 37.6139C86.8506 38.0187 86.0995 38.3192 85.3167 38.5056V60.7986C86.4786 61.085 87.5655 61.6174 88.504 62.3598C89.4425 63.1022 90.2109 64.0372 90.7572 65.1019C91.3035 66.1666 91.615 67.3361 91.6707 68.5314C91.7265 69.7268 91.5251 70.9202 91.0802 72.0311C90.6354 73.142 89.9574 74.1445 89.092 74.971C88.2266 75.7974 87.194 76.4286 86.0638 76.822C84.9336 77.2153 83.7322 77.3616 82.5407 77.251C81.3492 77.1403 80.1953 76.7754 79.1568 76.1807C78.38 75.74 77.6821 75.173 77.0918 74.5029L57.9433 85.5789C58.2222 86.4312 58.3647 87.3222 58.3657 88.2189C58.35 89.408 58.0809 90.5802 57.5764 91.6571C57.0719 92.734 56.3436 93.691 55.44 94.4642C54.5365 95.2375 53.4784 95.8092 52.3365 96.1412C51.1945 96.4732 49.9949 96.558 48.8176 96.3898C47.6403 96.2216 46.5124 95.8044 45.5091 95.1659C44.5058 94.5274 43.6502 93.6823 42.9993 92.687C42.3484 91.6917 41.9172 90.5691 41.7344 89.3939C41.5516 88.2188 41.6215 87.0183 41.9393 85.8723L22.6735 74.7141C22.1259 75.2907 21.4975 75.7847 20.808 76.1807C19.7695 76.7754 18.6156 77.1403 17.4241 77.251C16.2325 77.3616 15.0311 77.2153 13.901 76.822C12.7708 76.4286 11.7382 75.7974 10.8728 74.971C10.0074 74.1445 9.3294 73.142 8.88454 72.0311C8.43968 70.9202 8.23832 69.7268 8.29405 68.5314C8.34978 67.3361 8.66131 66.1666 9.2076 65.1019C9.7539 64.0372 10.5222 63.1022 11.4608 62.3598C12.3993 61.6174 13.4862 61.085 14.6481 60.7986V38.5056C13.8653 38.3192 13.1142 38.0187 12.4188 37.6139C11.4673 37.0646 10.6334 36.3333 9.96454 35.4617C9.29572 34.5901 8.80512 33.5953 8.52076 32.5341C8.23639 31.4729 8.16383 30.3661 8.30721 29.2769C8.45059 28.1876 8.80711 27.1373 9.35642 26.1858C9.90572 25.2344 10.637 24.4004 11.5086 23.7316C12.3802 23.0628 13.375 22.5722 14.4362 22.2878C15.4974 22.0035 16.6042 21.9309 17.6935 22.0743C18.7827 22.2177 19.833 22.5742 20.7845 23.1235C21.4839 23.5248 22.1204 24.0268 22.6735 24.6136L41.9745 13.4671C41.7517 12.7047 41.6371 11.9148 41.6343 11.1205C41.6343 8.90176 42.5157 6.7739 44.0845 5.20502C45.6534 3.63615 47.7813 2.75476 50 2.75476C52.2187 2.75476 54.3466 3.63615 55.9155 5.20502C57.4843 6.7739 58.3657 8.90176 58.3657 11.1205C58.3637 11.9187 58.2491 12.7126 58.0254 13.4788ZM56.0074 16.9049L75.3553 28.0749C75.0465 29.1536 74.9581 30.2835 75.0955 31.3971C75.2329 32.5107 75.5933 33.5852 76.155 34.5566C76.7168 35.5279 77.4685 36.3761 78.3652 37.0505C79.2619 37.725 80.2854 38.2119 81.3744 38.4821V60.7751L81.0576 60.8572L55.7844 17.1278L56.0074 16.9049ZM44.2156 17.1396L18.9541 60.9042L18.6256 60.8103V38.5173C19.717 38.2505 20.7426 37.7644 21.6402 37.0887C22.5378 36.413 23.2886 35.5618 23.8468 34.5867C24.4073 33.6137 24.7667 32.538 24.9038 31.4235C25.0408 30.3089 24.9527 29.1782 24.6447 28.0983L43.9809 16.9401C44.0636 17.0011 44.1421 17.0677 44.2156 17.1396ZM52.3466 19.1459L77.5963 62.8753C77.0199 63.4275 76.526 64.0597 76.1297 64.7526C75.7286 65.4402 75.432 66.1836 75.2497 66.9585H24.7972C24.6149 66.1836 24.3183 65.4402 23.9172 64.7526C23.5178 64.0654 23.0241 63.4374 22.4506 62.8871L47.6534 19.1459C49.1865 19.5886 50.8135 19.5886 52.3466 19.1459ZM56.1951 82.6105L75.414 71.5109C75.414 71.3232 75.3084 71.1472 75.2614 70.9595H24.809C24.809 71.0651 24.809 71.1824 24.7151 71.288L44.0278 82.4345C44.8232 81.6113 45.7789 80.9599 46.8358 80.5204C47.8927 80.0809 49.0285 79.8627 50.173 79.8792C51.3175 79.8957 52.4466 80.1465 53.4904 80.6163C54.5342 81.086 55.4707 81.7647 56.242 82.6105H56.1951Z" fill="#E535AB"/>
</g>
<defs>
<clipPath id="clip0_1_33">
<rect width="85" height="95" fill="white" transform="translate(8 2)"/>
</clipPath>
</defs>
</svg>
