<svg width="100" height="100" viewBox="0 0 100 100" fill="none" xmlns="http://www.w3.org/2000/svg">
<g clip-path="url(#clip0_1_55)">
<path d="M30.6954 28.9268L30.696 28.9263C36.0653 24.2962 42.9133 21.7388 50.0032 21.7158C64.4381 21.7174 76.341 32.4424 77.6337 46.1621L77.7818 47.7339L79.345 47.9548C87.5508 49.1145 93.8767 55.9677 93.8767 64.2907C93.8767 73.425 86.2431 80.7962 76.878 80.7962H25.8058C14.9617 80.7962 6.12332 72.2615 6.12332 61.6815C6.12332 52.5696 12.6712 44.9628 21.4256 43.0301L22.7464 42.7385L22.9676 41.4041C23.6915 37.0351 26.5549 32.4943 30.6954 28.9268Z" stroke="#D0D4F2" stroke-width="4"/>
</g>
<g clip-path="url(#clip1_1_55)">
<rect x="33.5189" y="54.1233" width="32.9622" height="32.9622" rx="16.4811" fill="white"/>
<path d="M66.4811 70.6044C66.4811 74.9755 64.7447 79.1675 61.6539 82.2583C58.5631 85.3492 54.3711 87.0856 50 87.0856C45.6289 87.0856 41.4369 85.3492 38.3461 82.2583C35.2553 79.1675 33.5189 74.9755 33.5189 70.6044C33.5189 66.2334 35.2553 62.0413 38.3461 58.9505C41.4369 55.8597 45.6289 54.1233 50 54.1233C54.3711 54.1233 58.5631 55.8597 61.6539 58.9505C64.7447 62.0413 66.4811 66.2334 66.4811 70.6044ZM51.0301 63.3939C51.0301 63.1208 50.9216 62.8588 50.7284 62.6656C50.5352 62.4724 50.2732 62.3639 50 62.3639C49.7268 62.3639 49.4648 62.4724 49.2716 62.6656C49.0785 62.8588 48.9699 63.1208 48.9699 63.3939V75.3283L44.5489 70.9052C44.3555 70.7118 44.0931 70.6031 43.8196 70.6031C43.5461 70.6031 43.2837 70.7118 43.0903 70.9052C42.8969 71.0986 42.7882 71.361 42.7882 71.6345C42.7882 71.908 42.8969 72.1704 43.0903 72.3638L49.2707 78.5442C49.3664 78.6401 49.4801 78.7163 49.6052 78.7682C49.7304 78.8201 49.8645 78.8468 50 78.8468C50.1355 78.8468 50.2697 78.8201 50.3948 78.7682C50.5199 78.7163 50.6336 78.6401 50.7293 78.5442L56.9097 72.3638C57.1031 72.1704 57.2118 71.908 57.2118 71.6345C57.2118 71.361 57.1031 71.0986 56.9097 70.9052C56.7163 70.7118 56.454 70.6031 56.1804 70.6031C55.9069 70.6031 55.6446 70.7118 55.4511 70.9052L51.0301 75.3283V63.3939Z" fill="#8894FA"/>
</g>
<g clip-path="url(#clip2_1_55)">
<rect x="66.4811" y="46.678" width="32.9622" height="32.9622" rx="16.4811" transform="rotate(-180 66.4811 46.678)" fill="white"/>
<path d="M33.5189 30.1969C33.5189 25.8259 35.2553 21.6338 38.3461 18.543C41.4369 15.4522 45.629 13.7158 50 13.7158C54.3711 13.7158 58.5631 15.4522 61.6539 18.543C64.7447 21.6338 66.4811 25.8259 66.4811 30.1969C66.4811 34.568 64.7447 38.76 61.6539 41.8508C58.5631 44.9416 54.3711 46.678 50 46.678C45.629 46.678 41.4369 44.9416 38.3461 41.8508C35.2553 38.76 33.5189 34.568 33.5189 30.1969ZM48.97 37.4074C48.97 37.6806 49.0785 37.9426 49.2717 38.1358C49.4648 38.329 49.7268 38.4375 50 38.4375C50.2732 38.4375 50.5352 38.329 50.7284 38.1358C50.9216 37.9426 51.0301 37.6806 51.0301 37.4074L51.0301 25.473L55.4512 29.8961C55.6446 30.0896 55.9069 30.1982 56.1804 30.1982C56.454 30.1982 56.7163 30.0896 56.9097 29.8961C57.1032 29.7027 57.2118 29.4404 57.2118 29.1669C57.2118 28.8933 57.1032 28.631 56.9097 28.4376L50.7293 22.2571C50.6336 22.1612 50.52 22.0851 50.3948 22.0332C50.2697 21.9813 50.1355 21.9545 50 21.9545C49.8645 21.9545 49.7304 21.9813 49.6052 22.0332C49.4801 22.0851 49.3664 22.1612 49.2707 22.2571L43.0903 28.4376C42.8969 28.631 42.7882 28.8933 42.7882 29.1669C42.7882 29.4404 42.8969 29.7027 43.0903 29.8961C43.2837 30.0896 43.5461 30.1982 43.8196 30.1982C44.0931 30.1982 44.3555 30.0896 44.5489 29.8961L48.97 25.473L48.97 37.4074Z" fill="#8894FA"/>
</g>
<defs>
<clipPath id="clip0_1_55">
<rect width="92" height="64" fill="white" transform="translate(4 19)"/>
</clipPath>
<clipPath id="clip1_1_55">
<rect width="32.9622" height="32.9622" fill="white" transform="translate(33.5189 54.1233)"/>
</clipPath>
<clipPath id="clip2_1_55">
<rect width="32.9622" height="32.9622" fill="white" transform="translate(66.4811 46.678) rotate(-180)"/>
</clipPath>
</defs>
</svg>
