<svg viewBox="0 0 100 100" fill="none" xmlns="http://www.w3.org/2000/svg">
<path fill-rule="evenodd" clip-rule="evenodd" d="M87.4137 22.1242C87.4137 21.4482 87.1457 20.7997 86.6685 20.3209V20.3158L80.0632 13.7106C79.5842 13.2318 78.9347 12.9628 78.2574 12.9628C77.5801 12.9628 76.9305 13.2318 76.4516 13.7106L71.1235 19.0438L81.3403 29.2607L86.6685 23.9275C87.1457 23.4487 87.4137 22.8002 87.4137 22.1242ZM67.5118 22.6504L77.7287 32.8673L42.9248 67.6813C42.6432 67.9606 42.3004 68.1705 41.9236 68.2943L29.5918 72.4066C29.367 72.4812 29.1259 72.4918 28.8954 72.4372C28.6649 72.3826 28.4541 72.265 28.2866 72.0975C28.1191 71.93 28.0015 71.7193 27.9469 71.4888C27.8924 71.2583 27.9029 71.0172 27.9775 70.7924L32.0898 58.4606C32.2151 58.0833 32.4268 57.7404 32.7079 57.4593L67.5118 22.6504ZM14.8305 84.7929C13.3935 83.3559 12.5862 81.4068 12.5862 79.3745V23.1817C12.5862 21.1494 13.3935 19.2004 14.8305 17.7633C16.2675 16.3263 18.2166 15.519 20.2488 15.519H53.4537C54.1311 15.519 54.7808 15.7881 55.2598 16.2671C55.7388 16.7461 56.0079 17.3958 56.0079 18.0732C56.0079 18.7506 55.7388 19.4003 55.2598 19.8793C54.7808 20.3583 54.1311 20.6274 53.4537 20.6274H20.2488C19.5714 20.6274 18.9217 20.8965 18.4427 21.3755C17.9637 21.8546 17.6946 22.5042 17.6946 23.1817V79.3745C17.6946 80.052 17.9637 80.7017 18.4427 81.1807C18.9217 81.6597 19.5714 81.9288 20.2488 81.9288H76.4417C77.1191 81.9288 77.7688 81.6597 78.2478 81.1807C78.7268 80.7017 78.9959 80.052 78.9959 79.3745V48.7239C78.9959 48.0465 79.2651 47.3968 79.7441 46.9178C80.2231 46.4388 80.8727 46.1697 81.5502 46.1697C82.2276 46.1697 82.8773 46.4388 83.3563 46.9178C83.8353 47.3968 84.1044 48.0465 84.1044 48.7239V79.3745C84.1044 81.4068 83.2971 83.3559 81.8601 84.7929C80.423 86.2299 78.474 87.0372 76.4417 87.0372H20.2488C18.2166 87.0372 16.2675 86.2299 14.8305 84.7929Z" fill="#9AC1B0"/>
</svg>
