<svg width="100" height="100" viewBox="0 0 100 100" fill="none" xmlns="http://www.w3.org/2000/svg">
<g clip-path="url(#clip0_1_207)">
<path d="M55.6217 84.7615H91.3991C92.5361 84.7617 93.6519 84.4381 94.6361 83.8236C95.6202 83.2089 96.4378 82.3249 97.0052 81.2603C97.5733 80.1957 97.8722 78.9882 97.8715 77.759C97.8715 76.5299 97.5711 75.3226 97.003 74.2586L72.9753 29.2451C72.4074 28.1807 71.5904 27.2969 70.6065 26.6824C69.6226 26.0678 68.5065 25.7443 67.3703 25.7443C66.2342 25.7443 65.118 26.0678 64.1341 26.6824C63.1502 27.2969 62.3332 28.1807 61.7653 29.2451L55.6217 40.7624L43.6097 18.2406C43.0413 17.1763 42.2239 16.2926 41.2398 15.6782C40.2556 15.0638 39.1393 14.7403 38.0029 14.7403C36.8666 14.7403 35.7503 15.0638 34.7661 15.6782C33.7819 16.2926 32.9646 17.1763 32.3962 18.2406L2.49713 74.2586C1.92833 75.3226 1.62861 76.5299 1.62811 77.759C1.62762 78.9882 1.92637 80.1957 2.49432 81.2603C3.06227 82.3249 3.87939 83.2089 4.8635 83.8236C5.84761 84.4381 6.96399 84.7617 8.10039 84.7615H30.5587C39.4569 84.7615 46.0191 80.534 50.5344 72.2863L61.4968 51.7518L67.3685 40.7624L84.9908 73.7721H61.4968L55.6217 84.7615ZM30.1926 73.7608L14.5196 73.757L38.0134 29.7467L49.7359 51.7518L41.8872 66.4597C38.8886 71.811 35.482 73.7608 30.1926 73.7608Z" fill="#00DC82"/>
</g>
<defs>
<clipPath id="clip0_1_207">
<rect width="96.7439" height="70.5661" fill="white" transform="translate(1.62811 14.7169)"/>
</clipPath>
</defs>
</svg>
