<svg viewBox="0 0 100 100" fill="none" xmlns="http://www.w3.org/2000/svg">
<path fill-rule="evenodd" clip-rule="evenodd" d="M30.3592 74.4364C29.1044 73.2234 28.3703 71.57 28.3122 69.8258C28.1901 68.6023 28.4864 67.3736 29.1527 66.3403C22.4283 54.6847 18.8196 39.9134 24.3448 24.5258C28.3122 13.0159 38.2867 5.17073 49.1017 5.17073C60.6453 5.17073 72.6595 15.2573 74.1053 34.7356C72.3009 34.1304 69.656 33.2899 68.0981 32.9313C67.7395 26.5655 62.3264 10.6959 49.5724 10.9649C45.0111 11.077 38.2755 13.2064 34.79 17.6893C30.5187 22.9929 28.0389 29.5142 27.707 36.3159C26.8964 45.6483 29.0832 54.9961 33.9494 63.0005C34.2177 62.9002 34.5042 62.8582 34.79 62.8772H35.0365C36.82 62.846 38.5427 63.5245 39.8259 64.7635C41.109 66.0025 41.8474 67.7005 41.8786 69.4839C41.9098 71.2673 41.2313 72.9901 39.9923 74.2733C38.7533 75.5564 37.0553 76.2948 35.2719 76.326H35.0365C33.2913 76.327 31.614 75.6494 30.3592 74.4364ZM89.3696 52.8803C80.2581 42.1549 66.8093 36.2935 51.388 36.2935H49.4716C48.9159 35.2088 48.0713 34.2988 47.031 33.6639C45.9907 33.0291 44.7952 32.6941 43.5765 32.6959H43.3412C41.5577 32.7271 39.8598 33.4655 38.6208 34.7486C37.3818 36.0318 36.7032 37.7546 36.7344 39.538C36.7657 41.3214 37.504 43.0194 38.7872 44.2584C40.0703 45.4974 41.7931 46.1759 43.5765 46.1447H43.8231C45.0897 46.0869 46.3142 45.6722 47.3553 44.9484C48.3964 44.2246 49.2116 43.2212 49.7069 42.054H51.8699C60.9932 42.0621 69.9064 44.7938 77.4674 49.8991C83.2365 53.5405 87.6989 58.9213 90.2102 65.2644C91.2158 67.4994 91.7161 69.9287 91.6755 72.3793C91.6348 74.8298 91.0541 77.2412 89.9748 79.4416C88.4747 82.4939 86.1254 85.0482 83.2088 86.7978C80.2924 88.5472 76.9328 89.4175 73.5337 89.3041C69.4799 89.245 65.4774 88.3881 61.7548 86.7824C60.4323 87.9816 58.034 89.8981 56.3529 91.1085C61.1792 93.4505 66.4555 94.7198 71.819 94.8293C83.3625 94.8293 91.8913 88.4635 95.1414 82.0866C98.6269 75.1156 98.3803 63.1014 89.3696 52.8803ZM68.2214 67.786C69.1045 67.7382 69.9695 67.5169 70.767 67.1348C71.5645 66.7526 72.279 66.2172 72.8696 65.5589C73.4602 64.9007 73.9153 64.1326 74.2091 63.2984C74.5028 62.4643 74.6294 61.5804 74.5816 60.6974C74.5337 59.8143 74.3124 58.9493 73.9303 58.1518C73.5482 57.3543 73.0127 56.6398 72.3545 56.0492C71.6962 55.4586 70.9281 55.0034 70.094 54.7097C69.2598 54.416 68.376 54.2894 67.4929 54.3372H67.2576C66.3734 54.3676 65.5038 54.5721 64.6988 54.9391C63.8938 55.3061 63.1691 55.8284 62.5663 56.476C61.9635 57.1236 61.4944 57.8837 61.1859 58.7129C60.8774 59.5421 60.7356 60.4241 60.7686 61.3082C60.8409 62.9858 61.5222 64.5796 62.685 65.7911C58.6055 73.838 52.3519 79.733 42.9825 84.653C37.0049 87.9192 30.152 89.2247 23.3921 88.3851C17.979 87.6678 13.7763 85.2582 11.1313 81.2908C9.24624 78.5863 8.15672 75.4076 7.98636 72.1153C7.816 68.8231 8.57162 65.5489 10.1675 62.6643C12.1302 58.8834 14.9234 55.5959 18.3376 53.0484C17.8557 51.4906 17.1385 48.8456 16.7798 46.918C-0.647548 59.4926 1.15683 76.5613 6.43548 84.6082C10.4029 90.6265 18.4609 94.3474 27.3483 94.3474C29.7797 94.3668 32.204 94.0845 34.5658 93.5068C41.8227 92.2207 48.6656 89.2141 54.5213 84.739C60.377 80.2638 65.0749 74.4505 68.2214 67.786Z" fill="#764ABC"/>
</svg>
