<svg viewBox="0 0 100 100" fill="none" xmlns="http://www.w3.org/2000/svg">
<path d="M24.6412 61.5397C24.6412 66.5972 20.5097 70.7287 15.4522 70.7287C10.3947 70.7287 6.26318 66.5972 6.26318 61.5397C6.26318 56.4822 10.3947 52.3507 15.4522 52.3507H24.6412V61.5397Z" fill="#E01E5A"/>
<path d="M29.2714 61.5397C29.2714 56.4822 33.4028 52.3507 38.4604 52.3507C43.5179 52.3507 47.6493 56.4822 47.6493 61.5397V84.5478C47.6493 89.6053 43.5179 93.7368 38.4604 93.7368C33.4028 93.7368 29.2714 89.6053 29.2714 84.5478V61.5397Z" fill="#E01E5A"/>
<path d="M38.4604 24.6412C33.4028 24.6412 29.2714 20.5097 29.2714 15.4522C29.2714 10.3947 33.4028 6.26324 38.4604 6.26324C43.5179 6.26324 47.6493 10.3947 47.6493 15.4522V24.6412H38.4604Z" fill="#36C5F0"/>
<path d="M38.4603 29.2713C43.5178 29.2713 47.6493 33.4028 47.6493 38.4603C47.6493 43.5179 43.5178 47.6493 38.4603 47.6493H15.4522C10.3947 47.6493 6.26318 43.5179 6.26318 38.4603C6.26318 33.4028 10.3947 29.2713 15.4522 29.2713H38.4603Z" fill="#36C5F0"/>
<path d="M75.3588 38.4603C75.3588 33.4028 79.4902 29.2713 84.5478 29.2713C89.6053 29.2713 93.7367 33.4028 93.7367 38.4603C93.7367 43.5179 89.6053 47.6493 84.5478 47.6493H75.3588V38.4603Z" fill="#2EB67D"/>
<path d="M70.7286 38.4603C70.7286 43.5179 66.5971 47.6493 61.5396 47.6493C56.4821 47.6493 52.3506 43.5179 52.3506 38.4603V15.4522C52.3506 10.3947 56.4821 6.26324 61.5396 6.26324C66.5971 6.26324 70.7286 10.3947 70.7286 15.4522V38.4603Z" fill="#2EB67D"/>
<path d="M61.5396 75.3588C66.5971 75.3588 70.7286 79.4903 70.7286 84.5478C70.7286 89.6053 66.5971 93.7368 61.5396 93.7368C56.4821 93.7368 52.3506 89.6053 52.3506 84.5478V75.3588H61.5396Z" fill="#ECB22E"/>
<path d="M61.5396 70.7287C56.4821 70.7287 52.3506 66.5972 52.3506 61.5397C52.3506 56.4822 56.4821 52.3507 61.5396 52.3507H84.5477C89.6052 52.3507 93.7367 56.4822 93.7367 61.5397C93.7367 66.5972 89.6052 70.7287 84.5477 70.7287H61.5396Z" fill="#ECB22E"/>
</svg>
