<svg width="100" height="100" viewBox="0 0 100 100" fill="none" xmlns="http://www.w3.org/2000/svg">
<path d="M50 3.94525C24.6699 3.94525 3.94525 24.6699 3.94525 50C3.94525 75.3301 24.6699 96.0547 50 96.0547C75.3301 96.0547 96.0547 75.3301 96.0547 50C96.0547 24.6699 75.3301 3.94525 50 3.94525ZM24.3409 75.6591C17.4327 68.7509 13.8141 59.5399 13.8141 50.6579L49.671 86.1859C40.4601 85.8569 31.2491 82.5673 24.3409 75.6591ZM57.8951 85.199L14.801 42.1049C18.4196 25.9857 32.8939 13.8141 50 13.8141C62.1716 13.8141 72.6984 19.7354 79.2777 28.6174L74.3432 32.8939C68.7509 25.3278 59.8689 20.3934 50 20.3934C37.1705 20.3934 26.3147 28.6174 22.0382 40.1311L59.8689 77.9618C69.4088 74.6722 76.6459 66.4481 78.9487 56.5792H63.1585V50H86.1859C86.1859 67.106 74.0143 81.5804 57.8951 85.199Z" fill="#7026B9"/>
</svg>
