<svg width="100" height="100" viewBox="0 0 100 100" fill="none" xmlns="http://www.w3.org/2000/svg">
<g clip-path="url(#clip0_1_320)">
<path d="M93.8124 27.9847C92.7581 24.0469 89.6637 20.9524 85.7259 19.8984C78.5958 17.9859 49.9925 17.9859 49.9925 17.9859C49.9925 17.9859 21.3891 17.9859 14.259 19.8984C10.3288 20.9524 7.22673 24.0469 6.17264 27.9847C4.26776 35.1148 4.26776 50 4.26776 50C4.26776 50 4.26776 64.8853 6.18017 72.0154C7.23425 75.9532 10.3288 79.0476 14.2665 80.1015C21.3966 82.0141 49.9998 82.0141 49.9998 82.0141C49.9998 82.0141 78.6034 82.0141 85.7333 80.1015C89.6713 79.0476 92.7658 75.9532 93.8197 72.0154C95.7322 64.8853 95.7322 50 95.7322 50C95.7322 50 95.7246 35.1148 93.8124 27.9847Z" fill="#FF0000"/>
<path d="M40.8518 63.7193L64.6062 50.0013L40.8518 36.283V63.7193Z" fill="white"/>
</g>
<defs>
<clipPath id="clip0_1_320">
<rect width="91.4645" height="64.0281" fill="white" transform="translate(4.26776 17.9859)"/>
</clipPath>
</defs>
</svg>
