<svg width="116" height="116" viewBox="0 0 116 116" fill="none" xmlns="http://www.w3.org/2000/svg">
<rect width="116" height="116" rx="58" fill="white" fill-opacity="0.5"/>
<path d="M34.2099 49.0791C34.2099 50.4209 34.355 51.5088 34.6088 52.3066C34.8989 53.1044 35.2615 53.9747 35.7692 54.9176C35.9506 55.2077 36.0231 55.4978 36.0231 55.7517C36.0231 56.1143 35.8055 56.4769 35.3341 56.8396L33.0495 58.3627C32.7231 58.5802 32.3967 58.689 32.1066 58.689C31.744 58.689 31.3813 58.5077 31.0187 58.1813C30.511 57.6374 30.0758 57.0572 29.7132 56.4769C29.3506 55.8605 28.9879 55.1715 28.589 54.3374C25.7605 57.6737 22.2066 59.3418 17.9275 59.3418C14.8813 59.3418 12.4517 58.4715 10.6747 56.7308C8.8978 54.9901 7.99121 52.6693 7.99121 49.7682C7.99121 46.6857 9.07912 44.1835 11.2912 42.2978C13.5033 40.4121 16.4407 39.4693 20.1758 39.4693C21.4088 39.4693 22.678 39.578 24.0198 39.7594C25.3615 39.9407 26.7396 40.2308 28.1901 40.5572V37.9099C28.1901 35.1539 27.6099 33.2319 26.4857 32.1077C25.3253 30.9835 23.367 30.4396 20.5747 30.4396C19.3055 30.4396 18 30.5846 16.6583 30.911C15.3165 31.2374 14.011 31.6363 12.7418 32.144C12.1615 32.3978 11.7264 32.5429 11.4725 32.6154C11.2187 32.6879 11.0374 32.7242 10.8923 32.7242C10.3846 32.7242 10.1308 32.3616 10.1308 31.6V29.8231C10.1308 29.2429 10.2033 28.8077 10.3846 28.5539C10.5659 28.3 10.8923 28.0462 11.4 27.7923C12.6692 27.1396 14.1923 26.5956 15.9692 26.1605C17.7462 25.689 19.6319 25.4715 21.6264 25.4715C25.9418 25.4715 29.0967 26.4506 31.1275 28.4088C33.122 30.3671 34.1374 33.3407 34.1374 37.3297V49.0791H34.2099ZM19.4868 54.5912C20.6835 54.5912 21.9165 54.3737 23.222 53.9385C24.5275 53.5033 25.6879 52.7055 26.667 51.6176C27.2473 50.9286 27.6824 50.1671 27.9 49.2967C28.1176 48.4264 28.2626 47.3747 28.2626 46.1418V44.6187C27.211 44.3649 26.0868 44.1473 24.9264 44.0022C23.7659 43.8572 22.6418 43.7846 21.5176 43.7846C19.0879 43.7846 17.311 44.2561 16.1143 45.2352C14.9176 46.2143 14.3374 47.5923 14.3374 49.4055C14.3374 51.1099 14.7725 52.3791 15.6791 53.2495C16.5495 54.1561 17.8187 54.5912 19.4868 54.5912ZM48.6066 58.5077C47.9539 58.5077 47.5187 58.3989 47.2286 58.1451C46.9385 57.9275 46.6846 57.4198 46.467 56.7308L37.9451 28.6989C37.7275 27.9736 37.6187 27.5022 37.6187 27.2484C37.6187 26.6682 37.9088 26.3418 38.489 26.3418H42.0429C42.7319 26.3418 43.2033 26.4506 43.4572 26.7044C43.7473 26.922 43.9648 27.4297 44.1824 28.1187L50.2747 52.1253L55.9319 28.1187C56.1132 27.3934 56.3308 26.922 56.6209 26.7044C56.911 26.4868 57.4187 26.3418 58.0714 26.3418H60.9725C61.6615 26.3418 62.133 26.4506 62.4231 26.7044C62.7132 26.922 62.967 27.4297 63.1121 28.1187L68.8418 52.4154L75.1154 28.1187C75.333 27.3934 75.5868 26.922 75.8407 26.7044C76.1308 26.4868 76.6022 26.3418 77.255 26.3418H80.6275C81.2077 26.3418 81.5341 26.6319 81.5341 27.2484C81.5341 27.4297 81.4978 27.611 81.4615 27.8286C81.4253 28.0462 81.3528 28.3363 81.2077 28.7352L72.4681 56.7671C72.2506 57.4923 71.9967 57.9638 71.7066 58.1813C71.4165 58.3989 70.9451 58.544 70.3286 58.544H67.2099C66.5209 58.544 66.0495 58.4352 65.7593 58.1813C65.4692 57.9275 65.2154 57.4561 65.0703 56.7308L59.4495 33.3407L53.8648 56.6945C53.6835 57.4198 53.4659 57.8912 53.1758 58.1451C52.8857 58.3989 52.378 58.5077 51.7253 58.5077H48.6066ZM95.2055 59.4868C93.3198 59.4868 91.4341 59.2693 89.6209 58.8341C87.8077 58.3989 86.3934 57.9275 85.4506 57.3835C84.8703 57.0572 84.4714 56.6945 84.3264 56.3682C84.1813 56.0418 84.1088 55.6791 84.1088 55.3528V53.5033C84.1088 52.7418 84.3989 52.3791 84.9429 52.3791C85.1604 52.3791 85.378 52.4154 85.5956 52.4879C85.8132 52.5605 86.1396 52.7055 86.5022 52.8506C87.7352 53.3945 89.0769 53.8297 90.4912 54.1198C91.9418 54.4099 93.356 54.555 94.8066 54.555C97.0912 54.555 98.8681 54.1561 100.101 53.3583C101.334 52.5605 101.987 51.4 101.987 49.9132C101.987 48.8978 101.66 48.0638 101.008 47.3747C100.355 46.6857 99.122 46.0693 97.3451 45.489L92.0868 43.8572C89.4396 43.0231 87.4813 41.7901 86.2846 40.1583C85.0879 38.5627 84.4714 36.7857 84.4714 34.9C84.4714 33.3769 84.7978 32.0352 85.4506 30.8748C86.1033 29.7143 86.9736 28.6989 88.0615 27.9011C89.1495 27.0671 90.3824 26.4506 91.833 26.0154C93.2835 25.5802 94.8066 25.3989 96.4022 25.3989C97.2 25.3989 98.0341 25.4352 98.8319 25.544C99.6659 25.6528 100.427 25.7978 101.189 25.9429C101.914 26.1242 102.603 26.3055 103.256 26.5231C103.909 26.7407 104.416 26.9583 104.779 27.1758C105.287 27.466 105.649 27.7561 105.867 28.0824C106.085 28.3725 106.193 28.7714 106.193 29.2791V30.9835C106.193 31.7451 105.903 32.144 105.359 32.144C105.069 32.144 104.598 31.9989 103.981 31.7088C101.914 30.766 99.5934 30.2945 97.0187 30.2945C94.9517 30.2945 93.3198 30.6209 92.1956 31.3099C91.0714 31.9989 90.4912 33.0506 90.4912 34.5374C90.4912 35.5528 90.8539 36.4231 91.5791 37.1121C92.3044 37.8011 93.6462 38.4901 95.5681 39.1066L100.718 40.7385C103.329 41.5726 105.214 42.733 106.338 44.2198C107.463 45.7066 108.007 47.411 108.007 49.2967C108.007 50.8561 107.68 52.2704 107.064 53.5033C106.411 54.7363 105.541 55.8242 104.416 56.6945C103.292 57.6011 101.951 58.2539 100.391 58.7253C98.7593 59.233 97.055 59.4868 95.2055 59.4868Z" fill="#252F3E"/>
<path fill-rule="evenodd" clip-rule="evenodd" d="M102.059 77.1111C90.1281 85.9232 72.7941 90.6012 57.8897 90.6012C37.0018 90.6012 18.1809 82.877 3.96546 70.0397C2.84128 69.0243 3.85667 67.6463 5.19842 68.4441C20.5743 77.365 39.5402 82.7683 59.1589 82.7683C72.3952 82.7683 86.9369 80.0122 100.318 74.3551C102.313 73.4485 104.018 75.6606 102.059 77.1111Z" fill="#FF9900"/>
<path fill-rule="evenodd" clip-rule="evenodd" d="M107.027 71.454C105.504 69.4957 96.9462 70.5111 93.066 70.9825C91.9055 71.1276 91.7242 70.1122 92.7759 69.3507C99.5935 64.5639 110.799 65.9419 112.104 67.5375C113.41 69.1693 111.742 80.3748 105.359 85.7419C104.38 86.5759 103.437 86.1408 103.872 85.0529C105.323 81.4628 108.551 73.3759 107.027 71.454Z" fill="#FF9900"/>
</svg>
