<?xml version="1.0" encoding="utf-8"?>
<!-- Generator: Adobe Illustrator 22.1.0, SVG Export Plug-In . SVG Version: 6.00 Build 0)  -->
<svg
  xmlns="http://www.w3.org/2000/svg"
  viewBox="0 0 161 33"
>
  <defs>
    <linearGradient id="openreplay-logo-a" x1="101.199%" x2="42.545%" y1="50%" y2="73.278%">
      <stop offset="0%" stop-color="#028990"/>
      <stop offset="100%" stop-color="#53C1C6"/>
    </linearGradient>
  </defs>
  <g id="logos" stroke="none" stroke-width="1" fill="none" fill-rule="evenodd">
      <g id="1" transform="translate(-107.000000, -142.000000)" fill-rule="nonzero">
          <g id="asayer-logo" transform="translate(107.000000, 142.000000)">
              <path d="M111.82462,0.697674399 C113.374653,0.697674399 114.614661,1.18216568 115.54468,2.15116278 C116.4747,3.12015988 116.939703,4.4961151 116.939703,6.27906975 L116.939703,52.2093024 C116.939703,53.9147372 116.4747,55.2519332 115.54468,56.2209301 C114.614661,57.1899272 113.374653,57.6744186 111.82462,57.6744186 C110.274587,57.6744186 109.053955,57.1899272 108.162686,56.2209301 C107.271417,55.2519332 106.825789,53.9147372 106.825789,52.2093024 L106.825789,49.0697674 L106.593285,49.0697674 C104.345738,52.0155187 101.43947,54.3023173 97.8743946,55.9302325 C94.3093191,57.5581476 90.2017939,58.372093 85.5516953,58.372093 C81.4441084,58.372093 77.6853353,57.6744256 74.2752632,56.2790697 C70.8651909,54.883714 67.958923,52.9069896 65.5563721,50.3488371 C63.1538213,47.7906849 61.29381,44.7287 59.9762819,41.1627906 C58.6587541,37.5968815 58,33.6046733 58,29.1860465 C58,24.8449395 58.6587541,20.8721111 59.9762819,17.2674418 C61.29381,13.6627727 63.1538213,10.5814081 65.5563721,8.0232558 C67.958923,5.46510348 70.8651909,3.48837906 74.2752632,2.09302325 C77.6853353,0.697667445 81.4441084,0 85.5516953,0 C90.2017939,0 94.3093191,0.813945335 97.8743946,2.44186045 C101.43947,4.06977557 104.345738,6.35657442 106.593285,9.30232557 L106.825789,9.30232557 L106.825789,6.27906975 C106.825789,4.4961151 107.271417,3.12015988 108.162686,2.15116278 C109.053955,1.18216568 110.274587,0.697674399 111.82462,0.697674399 Z M87.4117256,48.9534885 C90.2792862,48.9534885 92.9143025,48.4689971 95.3168534,47.5 C97.719404,46.5310029 99.7731669,45.1744272 101.478203,43.4302324 C103.183239,41.6860379 104.500747,39.612415 105.430767,37.2093022 C106.360786,34.8061897 106.825789,32.1317976 106.825789,29.1860465 C106.825789,26.3178152 106.360786,23.662803 105.430767,21.2209302 C104.500747,18.7790576 103.183239,16.6860552 101.478203,14.9418605 C99.7731669,13.1976657 97.719404,11.8410901 95.3168534,10.872093 C92.9143025,9.90309591 90.2792862,9.41860466 87.4117256,9.41860466 C84.6216665,9.41860466 82.0447757,9.90309591 79.6809755,10.872093 C77.3171755,11.8410901 75.302163,13.1976657 73.6358779,14.9418605 C71.9695925,16.6860552 70.6714596,18.7596779 69.7414397,21.1627906 C68.8114201,23.5659034 68.3464174,26.2402954 68.3464174,29.1860465 C68.3464174,32.1317976 68.8114201,34.8061897 69.7414397,37.2093022 C70.6714596,39.612415 71.9695925,41.6860379 73.6358779,43.4302324 C75.302163,45.1744272 77.3171755,46.5310029 79.6809755,47.5 C82.0447757,48.4689971 84.6216665,48.9534885 87.4117256,48.9534885 Z M134.43561,17.7906977 C134.43561,18.8759744 134.668112,19.8061976 135.133122,20.5813953 C135.598132,21.356593 136.411887,21.9961216 137.574411,22.5 C138.736936,23.0038785 140.26757,23.3720918 142.166361,23.6046512 C144.065151,23.8372103 146.48704,23.9534884 149.432103,23.9534884 C154.082201,24.0310081 157.995975,24.3992214 161.173543,25.0581394 C164.35111,25.7170577 166.928001,26.7441792 168.904293,28.1395349 C170.880584,29.5348908 172.294968,31.2790593 173.147486,33.372093 C174.000004,35.4651267 174.426257,37.945722 174.426257,40.8139534 C174.426257,46.3953767 172.294994,50.717039 168.032404,53.7790698 C163.769813,56.8411006 157.763526,58.372093 150.013362,58.372093 C144.123238,58.372093 139.182582,57.7713239 135.191248,56.5697673 C131.199913,55.3682111 127.848018,53.4883849 125.13546,50.9302327 C124.127939,49.9224755 123.624186,48.7209372 123.624186,47.3255815 C123.624186,45.8527058 124.069813,44.6705471 124.961082,43.7790697 C125.852351,42.8875925 126.956733,42.4418603 128.274261,42.4418603 C129.514287,42.4418603 130.754295,42.9457313 131.994321,43.9534884 C136.17941,47.5193978 141.953195,49.3023257 149.315851,49.3023257 C154.043451,49.3023257 157.724724,48.5271394 160.359779,46.9767443 C162.994835,45.4263489 164.312343,43.2945873 164.312343,40.5813953 C164.312343,39.341079 164.060467,38.2945779 163.556706,37.4418605 C163.052946,36.5891431 162.20044,35.8720959 160.999165,35.2906976 C159.797889,34.7092993 158.170379,34.282947 156.116586,34.0116279 C154.183604,33.7562686 151.821581,33.6210803 149.030453,33.6060594 L148.502088,33.604651 C144.084494,33.604651 140.345096,33.2751972 137.283782,32.6162789 C134.222467,31.957361 131.723076,30.9883785 129.785535,29.7093022 C127.847994,28.4302263 126.452986,26.8023356 125.600468,24.8255813 C124.74795,22.8488274 124.321697,20.5038894 124.321697,17.7906977 C124.321697,12.3643139 126.511086,8.04265174 130.889928,4.8255814 C135.268771,1.60851105 141.178182,0 148.61834,0 C153.423441,0 157.530967,0.503870927 160.941039,1.51162791 C164.351111,2.51938486 167.41238,4.14727556 170.124937,6.39534884 C171.364963,7.55814533 171.984967,8.87596162 171.984967,10.3488372 C171.984967,11.8992325 171.53934,13.1395302 170.648071,14.0697674 C169.756802,15 168.61367,15.4651163 167.21864,15.4651163 C165.978614,15.4651163 164.971108,15.1162825 164.196091,14.4186046 C159.778498,10.9302151 154.818467,9.18604651 149.315851,9.18604651 C144.743254,9.18604651 141.120107,9.96123256 138.4463,11.5116279 C135.772494,13.0620233 134.43561,15.1550256 134.43561,17.7906977 Z M232.029063,0.697674399 C233.579096,0.697674399 234.819103,1.18216568 235.749123,2.15116278 C236.679143,3.12015988 237.144146,4.4961151 237.144146,6.27906975 L237.144146,52.2093024 C237.144146,53.9147372 236.679143,55.2519332 235.749123,56.2209301 C234.819103,57.1899272 233.579096,57.6744186 232.029063,57.6744186 C230.47903,57.6744186 229.258397,57.1899272 228.367129,56.2209301 C227.47586,55.2519332 227.030232,53.9147372 227.030232,52.2093024 L227.030232,49.0697674 L226.797728,49.0697674 C224.550181,52.0155187 221.643913,54.3023173 218.078837,55.9302325 C214.513762,57.5581476 210.406237,58.372093 205.756138,58.372093 C201.648551,58.372093 197.889778,57.6744256 194.479706,56.2790697 C191.069634,54.883714 188.163366,52.9069896 185.760815,50.3488371 C183.358264,47.7906849 181.498253,44.7287 180.180725,41.1627906 C178.863197,37.5968815 178.204443,33.6046733 178.204443,29.1860465 C178.204443,24.8449395 178.863197,20.8721111 180.180725,17.2674418 C181.498253,13.6627727 183.358264,10.5814081 185.760815,8.0232558 C188.163366,5.46510348 191.069634,3.48837906 194.479706,2.09302325 C197.889778,0.697667445 201.648551,0 205.756138,0 C210.406237,0 214.513762,0.813945335 218.078837,2.44186045 C221.643913,4.06977557 224.550181,6.35657442 226.797728,9.30232557 L227.030232,9.30232557 L227.030232,6.27906975 C227.030232,4.4961151 227.47586,3.12015988 228.367129,2.15116278 C229.258397,1.18216568 230.47903,0.697674399 232.029063,0.697674399 Z M207.616168,48.9534885 C210.483729,48.9534885 213.118745,48.4689971 215.521296,47.5 C217.923847,46.5310029 219.97761,45.1744272 221.682646,43.4302324 C223.387682,41.6860379 224.70519,39.612415 225.63521,37.2093022 C226.565229,34.8061897 227.030232,32.1317976 227.030232,29.1860465 C227.030232,26.3178152 226.565229,23.662803 225.63521,21.2209302 C224.70519,18.7790576 223.387682,16.6860552 221.682646,14.9418605 C219.97761,13.1976657 217.923847,11.8410901 215.521296,10.872093 C213.118745,9.90309591 210.483729,9.41860466 207.616168,9.41860466 C204.826109,9.41860466 202.249218,9.90309591 199.885418,10.872093 C197.521618,11.8410901 195.506606,13.1976657 193.840321,14.9418605 C192.174035,16.6860552 190.875902,18.7596779 189.945883,21.1627906 C189.015863,23.5659034 188.55086,26.2402954 188.55086,29.1860465 C188.55086,32.1317976 189.015863,34.8061897 189.945883,37.2093022 C190.875902,39.612415 192.174035,41.6860379 193.840321,43.4302324 C195.506606,45.1744272 197.521618,46.5310029 199.885418,47.5 C202.249218,48.4689971 204.826109,48.9534885 207.616168,48.9534885 Z M294.398196,0.697674399 C296.02573,0.697674399 297.285114,1.18216568 298.176381,2.15116278 C299.067651,3.12015988 299.513279,4.4961151 299.513279,6.27906975 L299.513279,52.4418605 C299.513279,56.7829675 298.8739,60.639518 297.595121,64.011628 C296.316345,67.3837379 294.475709,70.2713057 292.073159,72.6744185 C289.670607,75.0775313 286.744964,76.8992187 283.296143,78.139535 C279.847318,79.3798512 275.95292,80 271.612826,80 C266.420217,80 261.789565,79.2635732 257.720727,77.7906977 C253.651892,76.3178221 250.454996,74.0697826 248.129949,71.0465115 C247.819942,70.6589127 247.568064,70.1744216 247.374311,69.5930233 C247.180558,69.0116278 247.083682,68.4108559 247.083682,67.7906976 C247.083682,66.3953419 247.529308,65.2325628 248.420577,64.3023256 C249.311847,63.3720885 250.53248,62.9069767 252.082511,62.9069767 C252.93503,62.9069767 253.613159,63.0426344 254.11692,63.3139535 C254.570303,63.5581407 255.070764,63.9436025 255.618313,64.4703482 L255.802572,64.6511628 C257.740113,66.5891571 259.948878,68.0620105 262.42893,69.0697674 C264.908983,70.0775245 267.892749,70.5813954 271.380325,70.5813954 C277.037943,70.5813954 281.455471,69.0116435 284.633037,65.872093 C287.810606,62.7325425 289.399364,58.4108802 289.399364,52.9069769 L289.399364,48.0232557 L289.166863,48.0232557 C287.074317,50.8914873 284.381176,53.1007673 281.087357,54.6511627 C277.793537,56.2015581 273.937888,56.9767441 269.520294,56.9767441 C261.77013,56.9767441 255.880094,54.7674639 251.85001,50.3488371 C247.819923,45.9302106 245.804912,39.4961663 245.804912,31.0465116 L245.804912,6.27906975 C245.804912,4.4961151 246.269913,3.12015988 247.199933,2.15116278 C248.129954,1.18216568 249.36996,0.697674399 250.919994,0.697674399 C252.470026,0.697674399 253.690659,1.18216568 254.581929,2.15116278 C255.473195,3.12015988 255.918823,4.4961151 255.918823,6.27906975 L255.918823,29.9999999 C255.918823,35.8139826 257.275083,40.1937837 259.98764,43.1395348 C262.700197,46.0852861 266.691473,47.5581396 271.961584,47.5581396 C277.309196,47.5581396 281.552347,45.8139708 284.691164,42.3255814 C287.829982,38.8371918 289.399364,34.0310384 289.399364,27.9069768 L289.399364,6.27906975 C289.399364,4.4961151 289.844992,3.12015988 290.736262,2.15116278 C291.627531,1.18216568 292.848164,0.697674399 294.398196,0.697674399 Z M365.137464,26.7441859 C365.137464,28.7596999 364.556212,30.3294518 363.393687,31.4534884 C362.231161,32.5775249 360.642403,33.1395349 358.627359,33.1395349 L317.82295,33.1395349 C318.675468,37.9457606 320.787354,41.7829315 324.158676,44.6511629 C327.529998,47.5193942 331.8894,48.9534885 337.237014,48.9534885 C340.724587,48.9534885 343.76648,48.3527193 346.362786,47.1511628 C348.959089,45.9496065 351.10973,44.3410954 352.814766,42.3255814 C353.899789,41.0852652 355.217297,40.4651164 356.767329,40.4651164 C358.239861,40.4651164 359.421743,40.9108483 360.313012,41.8023255 C361.204279,42.6938029 361.649907,43.8372024 361.649907,45.2325581 C361.649907,46.317835 361.301157,47.3255766 360.603641,48.255814 C357.968586,51.4341245 354.65544,53.9147198 350.664104,55.6976744 C346.672771,57.4806289 342.197119,58.372093 337.237014,58.372093 C332.664416,58.372093 328.537516,57.6744256 324.856187,56.2790697 C321.174861,54.883714 318.016717,52.9069896 315.381659,50.3488371 C312.746605,47.7906849 310.712216,44.7093204 309.278438,41.1046513 C307.844657,37.4999819 307.127776,33.5271536 307.127776,29.1860465 C307.127776,24.8449395 307.844657,20.8914907 309.278438,17.3255814 C310.712216,13.7596721 312.727229,10.6976872 315.323535,8.13953489 C317.919839,5.58138256 321.019859,3.58527847 324.623685,2.15116278 C328.227512,0.717047089 332.238161,0 336.655754,0 C340.763341,0 344.560863,0.678287774 348.048439,2.03488372 C351.536012,3.39147964 354.539157,5.27130582 357.057958,7.6744186 C359.576761,10.0775314 361.553024,12.8875808 362.986804,16.1046512 C364.420585,19.3217215 365.137464,22.7906791 365.137464,26.5116279 L365.137464,26.7441859 Z M336.655754,9.41860466 C331.773152,9.41860466 327.704376,10.7558006 324.449308,13.4302325 C321.194236,16.1046645 319.062975,19.6511408 318.055454,24.0697673 L355.256054,24.0697673 C354.248533,19.6511408 352.117269,16.1046645 348.862201,13.4302325 C345.607132,10.7558006 341.538357,9.41860466 336.655754,9.41860466 Z M400.884917,0.348837199 C402.434949,0.348837199 403.674958,0.794569168 404.604978,1.6860465 C405.534996,2.57752382 406,3.83720115 406,5.46511627 C406,7.01551161 405.534996,8.23642966 404.604978,9.12790696 C403.674958,10.0193843 402.434949,10.4651163 400.884917,10.4651163 C394.762287,10.4651163 390.034758,12.2674238 386.702187,15.872093 C383.369616,19.4767622 381.703358,25.0774815 381.703358,32.6744185 L381.703358,52.2093024 C381.703358,53.9147372 381.25773,55.2519332 380.36646,56.2209301 C379.475191,57.1899272 378.215809,57.6744186 376.588275,57.6744186 C375.038241,57.6744186 373.817608,57.1899272 372.926341,56.2209301 C372.035072,55.2519332 371.589444,53.9147372 371.589444,52.2093024 L371.589444,6.27906975 C371.589444,4.4961151 372.035072,3.12015988 372.926341,2.15116278 C373.817608,1.18216568 375.038241,0.697674399 376.588275,0.697674399 C378.215809,0.697674399 379.475191,1.18216568 380.36646,2.15116278 C381.25773,3.12015988 381.703358,4.4961151 381.703358,6.27906975 L381.703358,10.3488372 L381.93586,10.3488372 C385.888444,3.68213719 392.204732,0.348837199 400.884917,0.348837199 Z" id="asayer" fill="#000000"></path>
              <path d="M44.2286654,29.5 L6.50039175,7.42000842 L6.50039175,51.5799916 L44.2286654,29.5 Z M49.3769757,24.9357962 C50.9991976,25.8727671 52,27.6142173 52,29.5 C52,31.3857827 50.9991976,33.1272329 49.3769757,34.0642038 L8.01498302,58.2754687 C4.63477932,60.2559134 0,57.9934848 0,53.7112649 L0,5.2887351 C0,1.00651517 4.63477932,-1.25591343 8.01498302,0.724531317 L49.3769757,24.9357962 Z" id="outline" fill="#394EFF"></path>
              <path d="M29.4155818,28.4568548 L14.7929806,20.1454193 C14.2168086,19.8179252 13.4842425,20.0195184 13.1567483,20.5956904 C13.0540138,20.7764349 13,20.9807697 13,21.188671 L13,37.8115419 C13,38.4742836 13.5372583,39.0115419 14.2,39.0115419 C14.4079013,39.0115419 14.6122361,38.9575281 14.7929806,38.8547936 L29.4155818,30.5433581 C29.9917538,30.215864 30.193347,29.4832978 29.8658528,28.9071259 C29.7590506,28.7192249 29.6034827,28.563657 29.4155818,28.4568548 Z" id="inner-play" fill="#27A2A8"></path>
          </g>
      </g>
  </g>
</svg>
