<?xml version="1.0" encoding="utf-8"?>
<!-- Generator: Adobe Illustrator 22.1.0, SVG Export Plug-In . SVG Version: 6.00 Build 0)  -->
<svg
  xmlns="http://www.w3.org/2000/svg"
  viewBox="0 0 161 33"
>
  <defs>
    <linearGradient id="openreplay-logo-a" x1="101.199%" x2="42.545%" y1="50%" y2="73.278%">
      <stop offset="0%" stop-color="#028990"/>
      <stop offset="100%" stop-color="#53C1C6"/>
    </linearGradient>
  </defs>
  <g fill="none">
    <g transform="rotate(90 14.547 14.547)">
      <path fill="url(#openreplay-logo-a)" d="M8.28610412,13.3121114 C8.11730797,13.0912299 7.84534541,12.9746316 7.56897761,13.0046583 C7.29260981,13.0346849 7.05203361,13.2069692 6.93461246,13.4589475 L0.0863983115,27.1510949 C-0.0404471295,27.4048126 -0.0268878956,27.7061168 0.122234175,27.9474155 C0.271356245,28.1887142 0.534779416,28.3356031 0.818438456,28.33563 L10.3542246,28.33563 C10.6662609,28.3428744 10.9532361,28.1654869 11.0862647,27.883135 C13.1432547,23.6325931 11.896646,17.1696633 8.28610412,13.3121114 Z"/>
      <path fill="#394EFF" d="M17.2714067,27.8811505 C17.410038,28.1584424 17.6934316,28.3336455 18.0034468,28.3336455 L27.5375206,28.3336455 C27.8211796,28.3336455 28.0846028,28.1867297 28.2337248,27.945431 C28.3828469,27.7041323 28.3964062,27.4028281 28.2695607,27.1491104 C28.2695607,27.1491104 15.4430187,1.4930297 15.1206642,0.851317316 C14.9906119,0.584775122 14.7195483,0.416119343 14.4229726,0.417112347 C14.1263969,0.418308093 13.8565853,0.588959722 13.7285036,0.85645444 C10.563801,11.1946161 11.7447687,20.2028481 17.2714067,27.8811505 Z"/>
    </g>
    <path fill="#000" d="M52.5424749,3.02274247 C53.1132693,3.02274247 53.569898,3.20111304 53.9123746,3.55785953 C54.2548512,3.91460602 54.426087,4.42117843 54.426087,5.07759197 L54.426087,21.987291 C54.426087,22.6151648 54.2548512,23.1074676 53.9123746,23.464214 C53.569898,23.8209605 53.1132693,23.9993311 52.5424749,23.9993311 C51.9716805,23.9993311 51.5221867,23.8209605 51.1939799,23.464214 C50.8657732,23.1074676 50.7016722,22.6151648 50.7016722,21.987291 L50.7016722,20.8314381 L50.6160535,20.8314381 C49.7884017,21.9159475 48.7181782,22.7578565 47.4053512,23.3571906 C46.0925241,23.9565247 44.5799417,24.2561873 42.8675585,24.2561873 C41.3549534,24.2561873 39.9707978,23.9993337 38.7150502,23.4856187 C37.4593025,22.9719038 36.3890791,22.2441519 35.5043478,21.3023411 C34.6196165,20.3605304 33.9346736,19.2332284 33.4494983,17.9204013 C32.9643231,16.6075743 32.7217391,15.1378008 32.7217391,13.5110368 C32.7217391,11.9128125 32.9643231,10.4501739 33.4494983,9.12307692 C33.9346736,7.79597999 34.6196165,6.66154317 35.5043478,5.71973244 C36.3890791,4.77792171 37.4593025,4.05016979 38.7150502,3.53645485 C39.9707978,3.02273991 41.3549534,2.76588629 42.8675585,2.76588629 C44.5799417,2.76588629 46.0925241,3.06554884 47.4053512,3.66488294 C48.7181782,4.26421704 49.7884017,5.10612613 50.6160535,6.19063545 L50.7016722,6.19063545 L50.7016722,5.07759197 C50.7016722,4.42117843 50.8657732,3.91460602 51.1939799,3.55785953 C51.5221867,3.20111304 51.9716805,3.02274247 52.5424749,3.02274247 Z M43.5525084,20.7886288 C44.608478,20.7886288 45.5788139,20.6102582 46.4635452,20.2535117 C47.3482764,19.8967652 48.1045677,19.3973276 48.7324415,18.7551839 C49.3603153,18.1130403 49.8454832,17.3496142 50.1879599,16.4648829 C50.5304365,15.5801517 50.7016722,14.5955461 50.7016722,13.5110368 C50.7016722,12.4550672 50.5304365,11.4775965 50.1879599,10.5785953 C49.8454832,9.67959417 49.3603153,8.90903331 48.7324415,8.26688963 C48.1045677,7.62474595 47.3482764,7.12530836 46.4635452,6.76856187 C45.5788139,6.41181538 44.608478,6.23344482 43.5525084,6.23344482 C42.5250785,6.23344482 41.5761471,6.41181538 40.7056856,6.76856187 C39.8352242,7.12530836 39.0932026,7.62474595 38.4795987,8.26688963 C37.8659947,8.90903331 37.3879616,9.67245934 37.0454849,10.5571906 C36.7030083,11.4419219 36.5317726,12.4265275 36.5317726,13.5110368 C36.5317726,14.5955461 36.7030083,15.5801517 37.0454849,16.4648829 C37.3879616,17.3496142 37.8659947,18.1130403 38.4795987,18.7551839 C39.0932026,19.3973276 39.8352242,19.8967652 40.7056856,20.2535117 C41.5761471,20.6102582 42.5250785,20.7886288 43.5525084,20.7886288 Z M60.8688963,9.31571906 C60.8688963,9.71527513 60.9545142,10.0577466 61.1257525,10.3431438 C61.2969908,10.628541 61.5966534,10.8639902 62.0247492,11.0494983 C62.4528449,11.2350065 63.0164959,11.3705681 63.7157191,11.4561873 C64.4149422,11.5418064 65.306795,11.5846154 66.3913043,11.5846154 C68.1036875,11.6131551 69.5449217,11.7487167 70.7150502,11.9913043 C71.8851786,12.233892 72.8341101,12.6120376 73.5618729,13.1257525 C74.2896357,13.6394675 74.8104778,14.2816015 75.1244147,15.0521739 C75.4383516,15.8227463 75.5953177,16.7360036 75.5953177,17.7919732 C75.5953177,19.846833 74.8104872,21.4378985 73.2408027,22.5652174 C71.6711181,23.6925363 69.4593231,24.2561873 66.6053512,24.2561873 C64.4363325,24.2561873 62.6169527,24.0350078 61.1471572,23.5926421 C59.6773617,23.1502765 58.4430373,22.4581987 57.4441472,21.516388 C57.0731308,21.1453716 56.8876254,20.7030126 56.8876254,20.1892977 C56.8876254,19.647043 57.0517263,19.2118188 57.3799331,18.883612 C57.7081399,18.5554053 58.1148248,18.3913043 58.6,18.3913043 C59.0566355,18.3913043 59.5132642,18.5768097 59.9698997,18.9478261 C61.5110445,20.2606532 63.6372217,20.9170569 66.348495,20.9170569 C68.0894178,20.9170569 69.4450342,20.6316639 70.4153846,20.0608696 C71.3857351,19.4900752 71.870903,18.7052447 71.870903,17.7063545 C71.870903,17.249719 71.7781503,16.8644386 71.5926421,16.5505017 C71.407134,16.2365648 71.0932018,15.9725763 70.6508361,15.7585284 C70.2084705,15.5444805 69.6091454,15.3875144 68.8528428,15.2876254 C68.1410286,15.1936122 67.2712215,15.1438412 66.2433981,15.1383111 L66.0488294,15.1377926 C64.4220654,15.1377926 63.0450447,15.0165007 61.9177258,14.773913 C60.7904068,14.5313254 59.8700147,14.1745843 59.1565217,13.7036789 C58.4430288,13.2327736 57.9293215,12.6334485 57.6153846,11.9056856 C57.3014477,11.1779228 57.1444816,10.3146092 57.1444816,9.31571906 C57.1444816,7.31793873 57.9507166,5.72687326 59.5632107,4.54247492 C61.1757048,3.35807658 63.3518258,2.76588629 66.0916388,2.76588629 C67.8611014,2.76588629 69.3736838,2.95139168 70.6294314,3.32240803 C71.8851791,3.69342437 73.0124811,4.29274948 74.0113712,5.12040134 C74.4680067,5.54849712 74.6963211,6.03366507 74.6963211,6.57591973 C74.6963211,7.14671411 74.5322201,7.60334277 74.2040134,7.9458194 C73.8758066,8.28829603 73.4548521,8.45953177 72.9411371,8.45953177 C72.4845016,8.45953177 72.1134908,8.33110496 71.8280936,8.07424749 C70.2013297,6.78996013 68.374815,6.14782609 66.348495,6.14782609 C64.6646516,6.14782609 63.3304397,6.433219 62.3458194,7.00401338 C61.3611991,7.57480776 60.8688963,8.34536862 60.8688963,9.31571906 Z M96.8073579,3.02274247 C97.3781522,3.02274247 97.8347809,3.20111304 98.1772575,3.55785953 C98.5197342,3.91460602 98.6909699,4.42117843 98.6909699,5.07759197 L98.6909699,21.987291 C98.6909699,22.6151648 98.5197342,23.1074676 98.1772575,23.464214 C97.8347809,23.8209605 97.3781522,23.9993311 96.8073579,23.9993311 C96.2365635,23.9993311 95.7870696,23.8209605 95.4588629,23.464214 C95.1306561,23.1074676 94.9665552,22.6151648 94.9665552,21.987291 L94.9665552,20.8314381 L94.8809365,20.8314381 C94.0532846,21.9159475 92.9830612,22.7578565 91.6702341,23.3571906 C90.357407,23.9565247 88.8448246,24.2561873 87.1324415,24.2561873 C85.6198364,24.2561873 84.2356807,23.9993337 82.9799331,23.4856187 C81.7241855,22.9719038 80.6539621,22.2441519 79.7692308,21.3023411 C78.8844995,20.3605304 78.1995565,19.2332284 77.7143813,17.9204013 C77.229206,16.6075743 76.9866221,15.1378008 76.9866221,13.5110368 C76.9866221,11.9128125 77.229206,10.4501739 77.7143813,9.12307692 C78.1995565,7.79597999 78.8844995,6.66154317 79.7692308,5.71973244 C80.6539621,4.77792171 81.7241855,4.05016979 82.9799331,3.53645485 C84.2356807,3.02273991 85.6198364,2.76588629 87.1324415,2.76588629 C88.8448246,2.76588629 90.357407,3.06554884 91.6702341,3.66488294 C92.9830612,4.26421704 94.0532846,5.10612613 94.8809365,6.19063545 L94.9665552,6.19063545 L94.9665552,5.07759197 C94.9665552,4.42117843 95.1306561,3.91460602 95.4588629,3.55785953 C95.7870696,3.20111304 96.2365635,3.02274247 96.8073579,3.02274247 Z M87.8173913,20.7886288 C88.8733609,20.7886288 89.8436968,20.6102582 90.7284281,20.2535117 C91.6131594,19.8967652 92.3694506,19.3973276 92.9973244,18.7551839 C93.6251982,18.1130403 94.1103662,17.3496142 94.4528428,16.4648829 C94.7953194,15.5801517 94.9665552,14.5955461 94.9665552,13.5110368 C94.9665552,12.4550672 94.7953194,11.4775965 94.4528428,10.5785953 C94.1103662,9.67959417 93.6251982,8.90903331 92.9973244,8.26688963 C92.3694506,7.62474595 91.6131594,7.12530836 90.7284281,6.76856187 C89.8436968,6.41181538 88.8733609,6.23344482 87.8173913,6.23344482 C86.7899614,6.23344482 85.84103,6.41181538 84.9705686,6.76856187 C84.1001071,7.12530836 83.3580856,7.62474595 82.7444816,8.26688963 C82.1308776,8.90903331 81.6528445,9.67245934 81.3103679,10.5571906 C80.9678913,11.4419219 80.7966555,12.4265275 80.7966555,13.5110368 C80.7966555,14.5955461 80.9678913,15.5801517 81.3103679,16.4648829 C81.6528445,17.3496142 82.1308776,18.1130403 82.7444816,18.7551839 C83.3580856,19.3973276 84.1001071,19.8967652 84.9705686,20.2535117 C85.84103,20.6102582 86.7899614,20.7886288 87.8173913,20.7886288 Z M119.774582,3.02274247 C120.373916,3.02274247 120.83768,3.20111304 121.165886,3.55785953 C121.494093,3.91460602 121.658194,4.42117843 121.658194,5.07759197 L121.658194,22.0729097 C121.658194,23.671134 121.422745,25.0909637 120.951839,26.3324415 C120.480934,27.5739193 119.803126,28.6370078 118.918395,29.5217391 C118.033663,30.4064704 116.956305,31.0771438 115.686288,31.5337793 C114.41627,31.9904148 112.982171,32.2187291 111.383946,32.2187291 C109.471785,32.2187291 107.766563,31.9476058 106.268227,31.4053512 C104.769892,30.8630965 103.592646,30.0354571 102.736455,28.922408 C102.622296,28.7797094 102.529543,28.6013389 102.458194,28.387291 C102.386845,28.1732441 102.351171,27.9520636 102.351171,27.7237458 C102.351171,27.2100309 102.515271,26.7819415 102.843478,26.4394649 C103.171685,26.0969883 103.621179,25.9257525 104.191973,25.9257525 C104.50591,25.9257525 104.755629,25.9756963 104.941137,26.0755853 C105.108094,26.1654854 105.292387,26.3073972 105.49402,26.5013242 L105.561873,26.567893 C106.275366,27.281386 107.088736,27.8236325 108.002007,28.1946488 C108.915278,28.5656652 110.01404,28.7511706 111.298328,28.7511706 C113.381727,28.7511706 115.008467,28.1732499 116.178595,27.0173913 C117.348724,25.8615327 117.933779,24.2704672 117.933779,22.2441472 L117.933779,20.4461538 L117.848161,20.4461538 C117.077588,21.5021235 116.085848,22.3154932 114.87291,22.8862876 C113.659972,23.457082 112.240142,23.7424749 110.613378,23.7424749 C107.759406,23.7424749 105.59042,22.9291051 104.106355,21.3023411 C102.622289,19.6755772 101.880268,17.306816 101.880268,14.1959866 L101.880268,5.07759197 C101.880268,4.42117843 102.051503,3.91460602 102.39398,3.55785953 C102.736457,3.20111304 103.193085,3.02274247 103.76388,3.02274247 C104.334674,3.02274247 104.784168,3.20111304 105.112375,3.55785953 C105.440581,3.91460602 105.604682,4.42117843 105.604682,5.07759197 L105.604682,13.8107023 C105.604682,15.9511813 106.10412,17.5636512 107.10301,18.6481605 C108.1019,19.7326699 109.571674,20.2749164 111.512375,20.2749164 C113.481615,20.2749164 115.044141,19.6327823 116.2,18.348495 C117.355859,17.0642076 117.933779,15.2947716 117.933779,13.0401338 L117.933779,5.07759197 C117.933779,4.42117843 118.09788,3.91460602 118.426087,3.55785953 C118.754294,3.20111304 119.203788,3.02274247 119.774582,3.02274247 Z M145.82408,12.6120401 C145.82408,13.3540728 145.610036,13.9319935 145.18194,14.3458194 C144.753844,14.7596453 144.168789,14.9665552 143.426756,14.9665552 L128.400669,14.9665552 C128.714606,16.7360178 129.492301,18.1487127 130.733779,19.2046823 C131.975257,20.2606519 133.580592,20.7886288 135.549833,20.7886288 C136.83412,20.7886288 137.954287,20.5674493 138.910368,20.1250836 C139.866448,19.682718 140.658414,19.0905277 141.286288,18.348495 C141.685844,17.8918595 142.171012,17.6635452 142.741806,17.6635452 C143.284061,17.6635452 143.719285,17.8276461 144.047492,18.1558528 C144.375698,18.4840596 144.539799,18.9050142 144.539799,19.4187291 C144.539799,19.8182852 144.411373,20.1892959 144.154515,20.5317726 C143.184165,21.7019011 141.96411,22.6151584 140.494314,23.2715719 C139.024519,23.9279854 137.376375,24.2561873 135.549833,24.2561873 C133.865989,24.2561873 132.346272,23.9993337 130.990635,23.4856187 C129.634999,22.9719038 128.472023,22.2441519 127.501672,21.3023411 C126.531322,20.3605304 125.782165,19.2260936 125.254181,17.8989967 C124.726196,16.5718997 124.462207,15.1092611 124.462207,13.5110368 C124.462207,11.9128125 124.726196,10.4573087 125.254181,9.14448161 C125.782165,7.83165453 126.524187,6.70435254 127.480268,5.76254181 C128.436348,4.82073108 129.57792,4.08584433 130.905017,3.55785953 C132.232114,3.02987473 133.709022,2.76588629 135.335786,2.76588629 C136.848391,2.76588629 138.246816,3.01560508 139.531104,3.51505017 C140.815391,4.01449525 141.921289,4.70657306 142.848829,5.59130435 C143.77637,6.47603564 144.504122,7.51058494 145.032107,8.69498328 C145.560092,9.87938162 145.82408,11.1565149 145.82408,12.5264214 L145.82408,12.6120401 Z M135.335786,6.23344482 C133.537784,6.23344482 132.039471,6.72574759 130.840803,7.71036789 C129.642134,8.6949882 128.857304,10.0006608 128.486288,11.6274247 L142.185284,11.6274247 C141.814268,10.0006608 141.029437,8.6949882 139.830769,7.71036789 C138.632101,6.72574759 137.133788,6.23344482 135.335786,6.23344482 Z M158.98796,2.89431438 C159.558754,2.89431438 160.015383,3.0584153 160.35786,3.38662207 C160.700336,3.71482884 160.871572,4.17859232 160.871572,4.77792642 C160.871572,5.3487208 160.700336,5.79821464 160.35786,6.1264214 C160.015383,6.45462817 159.558754,6.6187291 158.98796,6.6187291 C156.733322,6.6187291 154.992425,7.28226761 153.765217,8.60936455 C152.538009,9.93646148 151.924415,11.9984253 151.924415,14.7953177 L151.924415,21.987291 C151.924415,22.6151648 151.760314,23.1074676 151.432107,23.464214 C151.1039,23.8209605 150.640137,23.9993311 150.040803,23.9993311 C149.470008,23.9993311 149.020514,23.8209605 148.692308,23.464214 C148.364101,23.1074676 148.2,22.6151648 148.2,21.987291 L148.2,5.07759197 C148.2,4.42117843 148.364101,3.91460602 148.692308,3.55785953 C149.020514,3.20111304 149.470008,3.02274247 150.040803,3.02274247 C150.640137,3.02274247 151.1039,3.20111304 151.432107,3.55785953 C151.760314,3.91460602 151.924415,4.42117843 151.924415,5.07759197 L151.924415,6.57591973 L152.010033,6.57591973 C153.465559,4.12150389 155.791511,2.89431438 158.98796,2.89431438 Z"/>
  </g>
</svg>
