<svg width="256" height="256" viewBox="0 0 256 256" fill="none" xmlns="http://www.w3.org/2000/svg">
<rect y="0.019043" width="256" height="256" rx="128" fill="white"/>
<path d="M195.225 128.019L82.9233 62.1112V193.927L195.225 128.019ZM210.55 114.395C215.379 117.192 218.358 122.39 218.358 128.019C218.358 133.648 215.379 138.846 210.55 141.643L87.4316 213.912C77.3701 219.824 63.5742 213.07 63.5742 200.288V55.7495C63.5742 42.9673 77.3701 36.2141 87.4316 42.1256L210.55 114.395Z" fill="#122AF5"/>
<path d="M144.308 124.386C145.611 125.132 146.414 126.518 146.414 128.019C146.414 129.52 145.611 130.906 144.308 131.652L111.103 150.924C108.39 152.5 104.669 150.699 104.669 147.291V108.747C104.669 105.339 108.39 103.538 111.103 105.114L144.308 124.386Z" fill="#3EAAAF"/>
</svg>
