<svg viewBox="0 0 250 250" fill="none" xmlns="http://www.w3.org/2000/svg">
    <rect width="250" height="250" rx="30" fill="white"/>
    <path d="M200.28 125L56.8038 40.7966V209.203L200.28 125ZM219.859 107.594C226.028 111.167 229.834 117.808 229.834 125C229.834 132.192 226.028 138.833 219.859 142.406L62.5636 234.737C49.7091 242.289 32.0835 233.662 32.0835 217.331V32.6689C32.0835 16.3384 49.7091 7.7105 62.5636 15.263L219.859 107.594Z" fill="#394EFF"/>
    <path d="M135.227 120.358C136.89 121.311 137.917 123.082 137.917 125C137.917 126.918 136.89 128.689 135.227 129.642L92.804 154.263C89.3371 156.277 84.5835 153.976 84.5835 149.622V100.378C84.5835 96.0236 89.3371 93.7228 92.804 95.7368L135.227 120.358Z" fill="#3EAAAF"/>
</svg>
