<svg width="116" height="116" viewBox="0 0 116 116" fill="none" xmlns="http://www.w3.org/2000/svg">
<g clip-path="url(#clip0_3227_92124)">
<path d="M96 0H20C8.9543 0 0 8.9543 0 20V96C0 107.046 8.9543 116 20 116H96C107.046 116 116 107.046 116 96V20C116 8.9543 107.046 0 96 0Z" fill="white"/>
<path d="M18.8711 44.9141C16.4648 44.9141 14.6055 43.0273 14.6055 40.7578C14.6055 38.4883 16.4648 36.6016 18.8711 36.6016C21.2773 36.6016 23.1367 38.4883 23.1367 40.7578C23.1367 43.0273 21.2773 44.9141 18.8711 44.9141ZM14.8789 78V48.6875H22.8633V78H14.8789Z" fill="black"/>
<path d="M46.707 78.6836C34.9766 78.6836 27.6758 70.8359 27.6758 58.2852V58.2305C27.6758 45.6797 35.0312 37.8594 46.707 37.8594C58.4102 37.8594 65.7383 45.707 65.7383 58.2305V58.2852C65.7383 70.8359 58.4375 78.6836 46.707 78.6836ZM46.707 71.6836C53.2695 71.6836 57.3164 66.4609 57.3164 58.2852V58.2305C57.3164 50 53.1875 44.8594 46.707 44.8594C40.2539 44.8594 36.0977 49.9727 36.0977 58.2305V58.2852C36.0977 66.543 40.2266 71.6836 46.707 71.6836Z" fill="black"/>
<path d="M85.4805 78.6836C76.1016 78.6836 70.0586 74.3906 69.5938 67.1172L69.5664 66.6797H77.3594L77.4141 66.9805C77.9336 70.043 81.1875 71.957 85.6992 71.957C90.2656 71.957 93.1367 69.9609 93.1367 66.9531V66.9258C93.1367 64.2461 91.1953 62.9062 86.3008 61.8945L82.1445 61.0742C74.3516 59.5156 70.4141 55.7969 70.4141 49.8633V49.8359C70.4141 42.6172 76.7031 37.8594 85.4531 37.8594C94.5859 37.8594 100.191 42.4258 100.574 49.3438L100.602 49.8633H92.8086L92.7812 49.5352C92.3711 46.4453 89.5273 44.5586 85.4531 44.5586C81.2148 44.5859 78.6719 46.5273 78.6719 49.3438V49.3711C78.6719 51.8594 80.6953 53.3086 85.2344 54.2109L89.418 55.0586C97.6758 56.6992 101.395 60.0625 101.395 66.2695V66.2969C101.395 73.8711 95.4336 78.6836 85.4805 78.6836Z" fill="black"/>
</g>
<defs>
<clipPath id="clip0_3227_92124">
<rect width="116" height="116" rx="58" fill="white"/>
</clipPath>
</defs>
</svg>
