<svg width="16" height="16" viewBox="0 0 16 16" fill="none" xmlns="http://www.w3.org/2000/svg">
<g clip-path="url(#clip0_1_10)">
<path fill-rule="evenodd" clip-rule="evenodd" d="M15 8C15 11.864 11.8674 15 8 15C4.13261 15 1 11.864 1 8C1 4.13228 4.13228 1 8 1C11.8677 1 15 4.13228 15 8ZM16 8C16 12.416 12.42 16 8 16C3.58 16 0 12.416 0 8C0 3.58 3.58 0 8 0C12.42 0 16 3.58 16 8ZM3.78003 10.7654H2.90627V6.71103H3.78003V10.7654ZM3.82916 5.66303C3.82916 5.94989 3.6116 6.17937 3.3414 6.17937C3.07471 6.17937 2.85714 5.94989 2.85714 5.66303C2.85714 5.36851 3.07471 5.14286 3.3414 5.14286C3.6116 5.14286 3.82916 5.36851 3.82916 5.66303ZM4.42922 8.00766C4.42922 6.25206 5.3556 5.15434 6.83297 5.15434C8.30674 5.15434 9.23314 6.25206 9.23314 8.00766C9.23314 9.76326 8.30674 10.8571 6.83297 10.8571C5.3556 10.8571 4.42922 9.76326 4.42922 8.00766ZM8.31029 8.00766C8.31029 6.77606 7.7348 5.99577 6.83297 5.99577C5.9276 5.99577 5.3556 6.77606 5.3556 8.00766C5.3556 9.23543 5.9276 10.0157 6.83297 10.0157C7.7348 10.0157 8.31029 9.23543 8.31029 8.00766ZM9.74903 9.21246C9.7876 10.2299 10.5526 10.8571 11.7176 10.8571C12.9423 10.8571 13.7143 10.1993 13.7143 9.15126C13.7143 8.32891 13.2791 7.86611 12.251 7.60989L11.6685 7.46451C11.0474 7.30389 10.7912 7.08971 10.7912 6.72251C10.7912 6.26354 11.1772 5.95754 11.7492 5.95754C12.3282 5.95754 12.7247 6.26737 12.7669 6.78371H13.6301C13.609 5.81223 12.8721 5.15434 11.7562 5.15434C10.6543 5.15434 9.87183 5.816 9.87183 6.7952C9.87183 7.58309 10.314 8.07269 11.2474 8.306L11.9036 8.47429C12.5422 8.63874 12.8019 8.86823 12.8019 9.266C12.8019 9.72497 12.3773 10.0539 11.7667 10.0539C11.1491 10.0539 10.6824 9.72114 10.6263 9.21246H9.74903Z" fill="black"/>
</g>
<defs>
<clipPath id="clip0_1_10">
<rect width="16" height="16" fill="white"/>
</clipPath>
</defs>
</svg>