<svg xmlns="http://www.w3.org/2000/svg" viewBox="0 0 40 40"><g fill="#2496ED"><rect x="6" y="18" width="5" height="5" rx="1"></rect><rect x="12" y="18" width="5" height="5" rx="1"></rect><rect x="18" y="18" width="5" height="5" rx="1"></rect><rect x="12" y="12" width="5" height="5" rx="1"></rect><rect x="18" y="12" width="5" height="5" rx="1"></rect><rect x="24" y="18" width="5" height="5" rx="1"></rect></g><path d="M33 19c-1.2-.9-3-1.1-4.3-.6-.2-1.3-1-2.4-2-3.2l-.7-.5-.5.7c-.7 1-.9 2.6-.3 3.8-1 .4-1.6.5-3 .5H4.5c-.5 2.7.3 6.2 2.7 8.3 2.3 2 5.6 2.5 9.6 2.5 8 0 14-3.7 16.5-10.5 1.1 0 2.6 0 3.4-1.6l.3-.5-.5-.4Z" fill="#2496ED"></path></svg>